#!OML:ASF G:\JayActor3\Patient Classification 1\Patient 1\Session 6\male.ASF
:FULLY-SPECIFIED
:DEGREES
1693
root 9.12688 15.3779 -3.33828 28.1362 -58.3201 -8.4204
lowerback 34.0942 -1.95706 -1.03718
upperback 15.9397 -4.00763 -2.18219
thorax 0.0498768 -2.39268 -0.542686
lowerneck 5.63337 -7.42951 -2.85984
upperneck -29.6038 -7.86795 16.7117
head -9.30535 -5.86625 7.21808
rclavicle 4.29375e-014 -1.03368e-014
rhumerus -17.3952 49.3188 -96.6328
rradius 127.219
rwrist 17.2951
rhand -51.772 -12.2425
rfingers 7.12502
rthumb -24.2889 -40.7238
lclavicle 4.29375e-014 -1.03368e-014
lhumerus -21.7111 -44.0656 89.7207
lradius 132.911
lwrist 16.2076
lhand -48.8386 -3.84115
lfingers 7.12502
lthumb -21.474 24.9886
rfemur -61.1255 -1.8452 28.0406
rtibia 60.595
rfoot -21.8151 -14.3148
rtoes 8.52876
lfemur -59.0396 9.0321 -19.109
ltibia 55.4423
lfoot -17.2731 8.70018
ltoes -1.32112
1694
root 9.12625 15.3786 -3.33338 28.1254 -58.4128 -8.42022
lowerback 34.0455 -1.97915 -1.05168
upperback 15.9224 -4.03698 -2.17064
thorax 0.0495963 -2.40841 -0.515503
lowerneck 5.65806 -7.4503 -2.86823
upperneck -29.7011 -7.87418 16.8199
head -9.33749 -5.88854 7.27054
rclavicle -6.36111e-015 -4.77083e-015
rhumerus -17.4872 49.3114 -96.7213
rradius 127.17
rwrist 17.2869
rhand -51.7776 -12.2725
rfingers 7.12502
rthumb -24.2943 -40.753
lclavicle -6.36111e-015 -4.77083e-015
lhumerus -21.844 -44.032 89.7779
lradius 132.893
lwrist 16.2887
lhand -48.853 -3.88228
lfingers 7.12502
lthumb -21.4878 24.9459
rfemur -61.103 -1.82461 28.0091
rtibia 60.5896
rfoot -21.7881 -14.2722
rtoes 8.51215
lfemur -58.9964 9.0576 -19.1361
ltibia 55.4458
lfoot -17.2897 8.75587
ltoes -1.3428
1695
root 9.12559 15.3793 -3.32843 28.1097 -58.5085 -8.41967
lowerback 33.9962 -1.99922 -1.06675
upperback 15.9116 -4.06473 -2.16152
thorax 0.0566637 -2.42359 -0.491369
lowerneck 5.67679 -7.47239 -2.87411
upperneck -29.7919 -7.88169 16.9304
head -9.36605 -5.91176 7.32257
rclavicle 9.54166e-015 -1.90833e-014
rhumerus -17.5551 49.3026 -96.7978
rradius 127.124
rwrist 17.3033
rhand -51.7626 -12.3131
rfingers 7.12502
rthumb -24.28 -40.7956
lclavicle 9.54166e-015 -1.90833e-014
lhumerus -21.9668 -43.9993 89.8187
lradius 132.885
lwrist 16.3415
lhand -48.8621 -3.89707
lfingers 7.12502
lthumb -21.4966 24.9301
rfemur -61.0737 -1.79556 27.9733
rtibia 60.5823
rfoot -21.7647 -14.2388
rtoes 8.49047
lfemur -58.9471 9.08383 -19.1636
ltibia 55.4485
lfoot -17.3053 8.81691
ltoes -1.37411
1696
root 9.12495 15.3802 -3.3235 28.0879 -58.6105 -8.41625
lowerback 33.951 -2.01481 -1.08676
upperback 15.9035 -4.089 -2.15397
thorax 0.0652975 -2.43744 -0.467311
lowerneck 5.68543 -7.49604 -2.87588
upperneck -29.8687 -7.89246 17.0368
head -9.38774 -5.93574 7.37058
rclavicle -3.02153e-014 3.18055e-015
rhumerus -17.61 49.2898 -96.869
rradius 127.083
rwrist 17.3461
rhand -51.7266 -12.3639
rfingers 7.12502
rthumb -24.2454 -40.851
lclavicle -3.02153e-014 3.18055e-015
lhumerus -22.0854 -43.97 89.8542
lradius 132.884
lwrist 16.3624
lhand -48.8648 -3.89393
lfingers 7.12502
lthumb -21.4992 24.933
rfemur -61.0374 -1.75676 27.9303
rtibia 60.5712
rfoot -21.7454 -14.2091
rtoes 8.47086
lfemur -58.8913 9.11373 -19.1942
ltibia 55.4501
lfoot -17.3225 8.87906
ltoes -1.40064
1697
root 9.12404 15.3814 -3.31822 28.0897 -58.7332 -8.42931
lowerback 33.8895 -2.01972 -1.11518
upperback 15.8957 -4.10259 -2.14731
thorax 0.0806806 -2.44666 -0.443598
lowerneck 5.68305 -7.5203 -2.87509
upperneck -29.9295 -7.90644 17.1348
head -9.40178 -5.95959 7.41296
rclavicle -9.54166e-015 -7.95139e-015
rhumerus -17.6589 49.2761 -96.9376
rradius 127.047
rwrist 17.3996
rhand -51.671 -12.4001
rfingers 7.12502
rthumb -24.1921 -40.8943
lclavicle -9.54166e-015 -7.95139e-015
lhumerus -22.199 -43.9412 89.8911
lradius 132.887
lwrist 16.3552
lhand -48.8617 -3.8801
lfingers 7.12502
lthumb -21.4962 24.9471
rfemur -61.0048 -1.69336 27.886
rtibia 60.5535
rfoot -21.7233 -14.1827
rtoes 8.44469
lfemur -58.8416 9.16412 -19.2253
ltibia 55.4528
lfoot -17.3484 8.93697
ltoes -1.39251
1698
root 9.12293 15.3829 -3.31226 28.1241 -58.8734 -8.4632
lowerback 33.8063 -2.01822 -1.14238
upperback 15.8845 -4.10744 -2.14318
thorax 0.099629 -2.45132 -0.42639
lowerneck 5.67746 -7.54534 -2.86861
upperneck -29.973 -7.92391 17.221
head -9.40958 -5.98327 7.44829
rclavicle 2.8625e-014 -5.64548e-014
rhumerus -17.7168 49.2603 -97.0146
rradius 127.017
rwrist 17.4478
rhand -51.6045 -12.4023
rfingers 7.12502
rthumb -24.1283 -40.905
lclavicle 2.8625e-014 -5.64548e-014
lhumerus -22.3083 -43.9157 89.9346
lradius 132.889
lwrist 16.336
lhand -48.8577 -3.87442
lfingers 7.12502
lthumb -21.4923 24.9532
rfemur -60.9817 -1.60935 27.8426
rtibia 60.5287
rfoot -21.6976 -14.1531
rtoes 8.42533
lfemur -58.8041 9.22956 -19.2552
ltibia 55.457
lfoot -17.3804 8.99901
ltoes -1.37873
1699
root 9.12166 15.3844 -3.3057 28.1916 -59.028 -8.51748
lowerback 33.701 -2.0112 -1.16674
upperback 15.8698 -4.10404 -2.14103
thorax 0.122374 -2.45155 -0.415807
lowerneck 5.67248 -7.57169 -2.85867
upperneck -30.0035 -7.94502 17.2983
head -9.41313 -6.00721 7.47867
rclavicle -6.67916e-014 -3.18055e-014
rhumerus -17.7878 49.2428 -97.0999
rradius 126.994
rwrist 17.4794
rhand -51.5408 -12.3583
rfingers 7.12502
rthumb -24.0672 -40.8691
lclavicle -6.67916e-014 -3.18055e-014
lhumerus -22.4087 -43.8941 89.9857
lradius 132.886
lwrist 16.3173
lhand -48.8479 -3.87687
lfingers 7.12502
lthumb -21.4829 24.9519
rfemur -60.9702 -1.50779 27.8016
rtibia 60.4971
rfoot -21.6647 -14.1238
rtoes 8.40513
lfemur -58.7818 9.31017 -19.2846
ltibia 55.4635
lfoot -17.4164 9.06251
ltoes -1.36413
1700
root 9.12027 15.3861 -3.29886 28.2806 -59.1855 -8.58791
lowerback 33.5864 -2.00323 -1.18322
upperback 15.8526 -4.09683 -2.1401
thorax 0.145329 -2.44929 -0.411955
lowerneck 5.67083 -7.59912 -2.84458
upperneck -30.0278 -7.96812 17.3707
head -9.41543 -6.03162 7.5063
rclavicle -1.59028e-015 -5.48646e-014
rhumerus -17.8695 49.2249 -97.1937
rradius 126.978
rwrist 17.4793
rhand -51.4837 -12.2701
rfingers 7.12502
rthumb -24.0125 -40.7881
lclavicle -1.59028e-015 -5.48646e-014
lhumerus -22.4947 -43.8754 90.0352
lradius 132.879
lwrist 16.3138
lhand -48.8288 -3.89679
lfingers 7.12502
lthumb -21.4646 24.934
rfemur -60.9626 -1.39904 27.766
rtibia 60.4602
rfoot -21.629 -14.0936
rtoes 8.39156
lfemur -58.7672 9.39936 -19.3107
ltibia 55.4701
lfoot -17.4548 9.12325
ltoes -1.34531
1701
root 9.11892 15.3879 -3.29217 28.3758 -59.3368 -8.66361
lowerback 33.4744 -1.99645 -1.19339
upperback 15.8342 -4.0891 -2.13848
thorax 0.165792 -2.44635 -0.410679
lowerneck 5.67456 -7.62783 -2.82759
upperneck -30.0533 -7.99298 17.4404
head -9.41932 -6.05692 7.53306
rclavicle -6.99722e-014 1.03368e-013
rhumerus -17.9548 49.2081 -97.2885
rradius 126.968
rwrist 17.4564
rhand -51.4379 -12.1614
rfingers 7.12502
rthumb -23.9686 -40.6852
lclavicle -6.99722e-014 1.03368e-013
lhumerus -22.5588 -43.8592 90.0778
lradius 132.866
lwrist 16.3336
lhand -48.8034 -3.92829
lfingers 7.12502
lthumb -21.4402 24.9053
rfemur -60.9548 -1.28984 27.7332
rtibia 60.4192
rfoot -21.5942 -14.0655
rtoes 8.39329
lfemur -58.7556 9.48735 -19.3337
ltibia 55.4749
lfoot -17.4911 9.18232
ltoes -1.34133
